<?xml version="1.0" encoding="UTF-8" ?>
<svg version="1.1" width="32" height="32" xmlns="http://www.w3.org/2000/svg" shape-rendering="crispEdges">
<rect x="0" y="0" width="2" height="1" fill="#B1B1B1" />
<rect x="2" y="0" width="1" height="1" fill="#BEBEBE" />
<rect x="3" y="0" width="1" height="1" fill="#B1B1B1" />
<rect x="4" y="0" width="1" height="1" fill="#DADADA" />
<rect x="5" y="0" width="1" height="13" fill="#FFFFFF" />
<rect x="6" y="0" width="3" height="1" fill="#DADADA" />
<rect x="9" y="0" width="1" height="13" fill="#FFFFFF" />
<rect x="10" y="0" width="2" height="1" fill="#DADADA" />
<rect x="12" y="0" width="2" height="1" fill="#BEBEBE" />
<rect x="14" y="0" width="1" height="1" fill="#9D9D9D" />
<rect x="15" y="0" width="2" height="1" fill="#818181" />
<rect x="17" y="0" width="2" height="1" fill="#525252" />
<rect x="19" y="0" width="1" height="1" fill="#818181" />
<rect x="20" y="0" width="2" height="1" fill="#525252" />
<rect x="22" y="0" width="1" height="1" fill="#2F2F2F" />
<rect x="23" y="0" width="2" height="1" fill="#525252" />
<rect x="25" y="0" width="1" height="1" fill="#2F2F2F" />
<rect x="26" y="0" width="3" height="1" fill="#202020" />
<rect x="29" y="0" width="2" height="1" fill="#2F2F2F" />
<rect x="31" y="0" width="1" height="3" fill="#525252" />
<rect x="0" y="1" width="1" height="2" fill="#B1B1B1" />
<rect x="1" y="1" width="1" height="1" fill="#BEBEBE" />
<rect x="2" y="1" width="2" height="1" fill="#DADADA" />
<rect x="4" y="1" width="1" height="12" fill="#FFFFFF" />
<rect x="6" y="1" width="3" height="12" fill="#FFFFFF" />
<rect x="10" y="1" width="1" height="12" fill="#FFFFFF" />
<rect x="11" y="1" width="2" height="1" fill="#DADADA" />
<rect x="13" y="1" width="1" height="1" fill="#BEBEBE" />
<rect x="14" y="1" width="1" height="1" fill="#B1B1B1" />
<rect x="15" y="1" width="1" height="2" fill="#9D9D9D" />
<rect x="16" y="1" width="2" height="1" fill="#525252" />
<rect x="18" y="1" width="3" height="1" fill="#2F2F2F" />
<rect x="21" y="1" width="1" height="1" fill="#202020" />
<rect x="22" y="1" width="1" height="14" fill="#000000" />
<rect x="23" y="1" width="1" height="1" fill="#202020" />
<rect x="24" y="1" width="3" height="1" fill="#000000" />
<rect x="27" y="1" width="2" height="1" fill="#202020" />
<rect x="29" y="1" width="1" height="1" fill="#2F2F2F" />
<rect x="30" y="1" width="1" height="1" fill="#000000" />
<rect x="1" y="2" width="2" height="1" fill="#DADADA" />
<rect x="3" y="2" width="1" height="11" fill="#FFFFFF" />
<rect x="11" y="2" width="2" height="1" fill="#FFFFFF" />
<rect x="13" y="2" width="1" height="5" fill="#DADADA" />
<rect x="14" y="2" width="1" height="2" fill="#BEBEBE" />
<rect x="16" y="2" width="1" height="1" fill="#525252" />
<rect x="17" y="2" width="2" height="1" fill="#2F2F2F" />
<rect x="19" y="2" width="1" height="1" fill="#202020" />
<rect x="20" y="2" width="2" height="1" fill="#000000" />
<rect x="23" y="2" width="2" height="13" fill="#000000" />
<rect x="25" y="2" width="1" height="1" fill="#202020" />
<rect x="26" y="2" width="1" height="13" fill="#000000" />
<rect x="27" y="2" width="1" height="1" fill="#202020" />
<rect x="28" y="2" width="2" height="1" fill="#000000" />
<rect x="30" y="2" width="1" height="1" fill="#202020" />
<rect x="0" y="3" width="1" height="1" fill="#BEBEBE" />
<rect x="1" y="3" width="1" height="1" fill="#DADADA" />
<rect x="2" y="3" width="1" height="9" fill="#FFFFFF" />
<rect x="11" y="3" width="1" height="10" fill="#FFFFFF" />
<rect x="12" y="3" width="1" height="1" fill="#DADADA" />
<rect x="15" y="3" width="1" height="4" fill="#818181" />
<rect x="16" y="3" width="1" height="1" fill="#2F2F2F" />
<rect x="17" y="3" width="2" height="1" fill="#202020" />
<rect x="19" y="3" width="1" height="1" fill="#000000" />
<rect x="20" y="3" width="1" height="1" fill="#202020" />
<rect x="21" y="3" width="1" height="12" fill="#000000" />
<rect x="25" y="3" width="1" height="12" fill="#000000" />
<rect x="27" y="3" width="2" height="12" fill="#000000" />
<rect x="29" y="3" width="1" height="1" fill="#202020" />
<rect x="30" y="3" width="1" height="1" fill="#000000" />
<rect x="31" y="3" width="1" height="5" fill="#2F2F2F" />
<rect x="0" y="4" width="1" height="1" fill="#DADADA" />
<rect x="1" y="4" width="1" height="3" fill="#FFFFFF" />
<rect x="12" y="4" width="1" height="8" fill="#FFFFFF" />
<rect x="14" y="4" width="1" height="1" fill="#DADADA" />
<rect x="16" y="4" width="1" height="2" fill="#525252" />
<rect x="17" y="4" width="1" height="2" fill="#202020" />
<rect x="18" y="4" width="1" height="10" fill="#000000" />
<rect x="19" y="4" width="1" height="1" fill="#202020" />
<rect x="20" y="4" width="1" height="10" fill="#000000" />
<rect x="29" y="4" width="1" height="10" fill="#000000" />
<rect x="30" y="4" width="1" height="3" fill="#202020" />
<rect x="0" y="5" width="1" height="1" fill="#FFFFFF" />
<rect x="14" y="5" width="1" height="1" fill="#BEBEBE" />
<rect x="19" y="5" width="1" height="9" fill="#000000" />
<rect x="0" y="6" width="1" height="4" fill="#DADADA" />
<rect x="14" y="6" width="1" height="1" fill="#DADADA" />
<rect x="16" y="6" width="1" height="4" fill="#2F2F2F" />
<rect x="17" y="6" width="1" height="1" fill="#000000" />
<rect x="1" y="7" width="1" height="1" fill="#DADADA" />
<rect x="13" y="7" width="1" height="2" fill="#FFFFFF" />
<rect x="14" y="7" width="1" height="1" fill="#BEBEBE" />
<rect x="15" y="7" width="1" height="1" fill="#9D9D9D" />
<rect x="17" y="7" width="1" height="1" fill="#202020" />
<rect x="30" y="7" width="1" height="1" fill="#000000" />
<rect x="1" y="8" width="1" height="1" fill="#FFFFFF" />
<rect x="14" y="8" width="1" height="1" fill="#DADADA" />
<rect x="15" y="8" width="1" height="1" fill="#B1B1B1" />
<rect x="17" y="8" width="1" height="3" fill="#000000" />
<rect x="30" y="8" width="2" height="1" fill="#202020" />
<rect x="1" y="9" width="1" height="4" fill="#DADADA" />
<rect x="13" y="9" width="1" height="3" fill="#DADADA" />
<rect x="14" y="9" width="1" height="3" fill="#BEBEBE" />
<rect x="15" y="9" width="1" height="1" fill="#9D9D9D" />
<rect x="30" y="9" width="1" height="5" fill="#000000" />
<rect x="31" y="9" width="1" height="3" fill="#202020" />
<rect x="0" y="10" width="1" height="1" fill="#BEBEBE" />
<rect x="15" y="10" width="1" height="1" fill="#B1B1B1" />
<rect x="16" y="10" width="1" height="1" fill="#202020" />
<rect x="0" y="11" width="1" height="1" fill="#DADADA" />
<rect x="15" y="11" width="1" height="1" fill="#9D9D9D" />
<rect x="16" y="11" width="1" height="3" fill="#2F2F2F" />
<rect x="17" y="11" width="1" height="1" fill="#202020" />
<rect x="0" y="12" width="1" height="1" fill="#BEBEBE" />
<rect x="2" y="12" width="1" height="1" fill="#DADADA" />
<rect x="12" y="12" width="1" height="2" fill="#DADADA" />
<rect x="13" y="12" width="1" height="1" fill="#BEBEBE" />
<rect x="14" y="12" width="1" height="1" fill="#B1B1B1" />
<rect x="15" y="12" width="1" height="2" fill="#818181" />
<rect x="17" y="12" width="1" height="1" fill="#000000" />
<rect x="31" y="12" width="1" height="4" fill="#2F2F2F" />
<rect x="0" y="13" width="1" height="3" fill="#9D9D9D" />
<rect x="1" y="13" width="2" height="1" fill="#BEBEBE" />
<rect x="3" y="13" width="1" height="1" fill="#DADADA" />
<rect x="4" y="13" width="1" height="1" fill="#BEBEBE" />
<rect x="5" y="13" width="7" height="1" fill="#DADADA" />
<rect x="13" y="13" width="1" height="1" fill="#9D9D9D" />
<rect x="14" y="13" width="1" height="2" fill="#818181" />
<rect x="17" y="13" width="1" height="2" fill="#202020" />
<rect x="1" y="14" width="1" height="1" fill="#BEBEBE" />
<rect x="2" y="14" width="5" height="1" fill="#B1B1B1" />
<rect x="7" y="14" width="2" height="1" fill="#BEBEBE" />
<rect x="9" y="14" width="1" height="2" fill="#B1B1B1" />
<rect x="10" y="14" width="2" height="1" fill="#BEBEBE" />
<rect x="12" y="14" width="1" height="1" fill="#B1B1B1" />
<rect x="13" y="14" width="1" height="2" fill="#818181" />
<rect x="15" y="14" width="1" height="5" fill="#525252" />
<rect x="16" y="14" width="1" height="1" fill="#202020" />
<rect x="18" y="14" width="3" height="1" fill="#202020" />
<rect x="29" y="14" width="2" height="1" fill="#202020" />
<rect x="1" y="15" width="1" height="1" fill="#9D9D9D" />
<rect x="2" y="15" width="3" height="1" fill="#818181" />
<rect x="5" y="15" width="3" height="1" fill="#525252" />
<rect x="8" y="15" width="1" height="1" fill="#818181" />
<rect x="10" y="15" width="2" height="1" fill="#818181" />
<rect x="12" y="15" width="1" height="1" fill="#525252" />
<rect x="14" y="15" width="1" height="1" fill="#525252" />
<rect x="16" y="15" width="3" height="1" fill="#2F2F2F" />
<rect x="19" y="15" width="1" height="1" fill="#202020" />
<rect x="20" y="15" width="1" height="1" fill="#2F2F2F" />
<rect x="21" y="15" width="3" height="1" fill="#202020" />
<rect x="24" y="15" width="1" height="1" fill="#2F2F2F" />
<rect x="25" y="15" width="5" height="1" fill="#202020" />
<rect x="30" y="15" width="1" height="1" fill="#2F2F2F" />
<rect x="0" y="16" width="1" height="1" fill="#818181" />
<rect x="1" y="16" width="2" height="1" fill="#525252" />
<rect x="3" y="16" width="1" height="1" fill="#818181" />
<rect x="4" y="16" width="2" height="1" fill="#525252" />
<rect x="6" y="16" width="1" height="1" fill="#2F2F2F" />
<rect x="7" y="16" width="2" height="1" fill="#525252" />
<rect x="9" y="16" width="1" height="1" fill="#2F2F2F" />
<rect x="10" y="16" width="3" height="1" fill="#202020" />
<rect x="13" y="16" width="2" height="1" fill="#2F2F2F" />
<rect x="16" y="16" width="2" height="1" fill="#B1B1B1" />
<rect x="18" y="16" width="1" height="1" fill="#BEBEBE" />
<rect x="19" y="16" width="1" height="1" fill="#B1B1B1" />
<rect x="20" y="16" width="1" height="1" fill="#DADADA" />
<rect x="21" y="16" width="1" height="13" fill="#FFFFFF" />
<rect x="22" y="16" width="3" height="1" fill="#DADADA" />
<rect x="25" y="16" width="1" height="13" fill="#FFFFFF" />
<rect x="26" y="16" width="2" height="1" fill="#DADADA" />
<rect x="28" y="16" width="2" height="1" fill="#BEBEBE" />
<rect x="30" y="16" width="1" height="1" fill="#9D9D9D" />
<rect x="31" y="16" width="1" height="1" fill="#818181" />
<rect x="0" y="17" width="2" height="1" fill="#525252" />
<rect x="2" y="17" width="3" height="1" fill="#2F2F2F" />
<rect x="5" y="17" width="1" height="1" fill="#202020" />
<rect x="6" y="17" width="1" height="14" fill="#000000" />
<rect x="7" y="17" width="1" height="1" fill="#202020" />
<rect x="8" y="17" width="3" height="1" fill="#000000" />
<rect x="11" y="17" width="2" height="1" fill="#202020" />
<rect x="13" y="17" width="1" height="1" fill="#2F2F2F" />
<rect x="14" y="17" width="1" height="1" fill="#000000" />
<rect x="16" y="17" width="1" height="2" fill="#B1B1B1" />
<rect x="17" y="17" width="1" height="1" fill="#BEBEBE" />
<rect x="18" y="17" width="2" height="1" fill="#DADADA" />
<rect x="20" y="17" width="1" height="12" fill="#FFFFFF" />
<rect x="22" y="17" width="3" height="12" fill="#FFFFFF" />
<rect x="26" y="17" width="1" height="12" fill="#FFFFFF" />
<rect x="27" y="17" width="2" height="1" fill="#DADADA" />
<rect x="29" y="17" width="1" height="1" fill="#BEBEBE" />
<rect x="30" y="17" width="1" height="1" fill="#B1B1B1" />
<rect x="31" y="17" width="1" height="2" fill="#9D9D9D" />
<rect x="0" y="18" width="1" height="1" fill="#525252" />
<rect x="1" y="18" width="2" height="1" fill="#2F2F2F" />
<rect x="3" y="18" width="1" height="1" fill="#202020" />
<rect x="4" y="18" width="2" height="1" fill="#000000" />
<rect x="7" y="18" width="2" height="13" fill="#000000" />
<rect x="9" y="18" width="1" height="1" fill="#202020" />
<rect x="10" y="18" width="1" height="13" fill="#000000" />
<rect x="11" y="18" width="1" height="1" fill="#202020" />
<rect x="12" y="18" width="2" height="1" fill="#000000" />
<rect x="14" y="18" width="1" height="1" fill="#202020" />
<rect x="17" y="18" width="2" height="1" fill="#DADADA" />
<rect x="19" y="18" width="1" height="11" fill="#FFFFFF" />
<rect x="27" y="18" width="2" height="1" fill="#FFFFFF" />
<rect x="29" y="18" width="1" height="5" fill="#DADADA" />
<rect x="30" y="18" width="1" height="2" fill="#BEBEBE" />
<rect x="0" y="19" width="1" height="1" fill="#2F2F2F" />
<rect x="1" y="19" width="2" height="1" fill="#202020" />
<rect x="3" y="19" width="1" height="1" fill="#000000" />
<rect x="4" y="19" width="1" height="1" fill="#202020" />
<rect x="5" y="19" width="1" height="12" fill="#000000" />
<rect x="9" y="19" width="1" height="12" fill="#000000" />
<rect x="11" y="19" width="2" height="12" fill="#000000" />
<rect x="13" y="19" width="1" height="1" fill="#202020" />
<rect x="14" y="19" width="1" height="1" fill="#000000" />
<rect x="15" y="19" width="1" height="5" fill="#2F2F2F" />
<rect x="16" y="19" width="1" height="1" fill="#BEBEBE" />
<rect x="17" y="19" width="1" height="1" fill="#DADADA" />
<rect x="18" y="19" width="1" height="9" fill="#FFFFFF" />
<rect x="27" y="19" width="1" height="10" fill="#FFFFFF" />
<rect x="28" y="19" width="1" height="1" fill="#DADADA" />
<rect x="31" y="19" width="1" height="4" fill="#818181" />
<rect x="0" y="20" width="1" height="2" fill="#525252" />
<rect x="1" y="20" width="1" height="2" fill="#202020" />
<rect x="2" y="20" width="1" height="10" fill="#000000" />
<rect x="3" y="20" width="1" height="1" fill="#202020" />
<rect x="4" y="20" width="1" height="10" fill="#000000" />
<rect x="13" y="20" width="1" height="10" fill="#000000" />
<rect x="14" y="20" width="1" height="3" fill="#202020" />
<rect x="16" y="20" width="1" height="1" fill="#DADADA" />
<rect x="17" y="20" width="1" height="3" fill="#FFFFFF" />
<rect x="28" y="20" width="1" height="8" fill="#FFFFFF" />
<rect x="30" y="20" width="1" height="1" fill="#DADADA" />
<rect x="3" y="21" width="1" height="9" fill="#000000" />
<rect x="16" y="21" width="1" height="1" fill="#FFFFFF" />
<rect x="30" y="21" width="1" height="1" fill="#BEBEBE" />
<rect x="0" y="22" width="1" height="4" fill="#2F2F2F" />
<rect x="1" y="22" width="1" height="1" fill="#000000" />
<rect x="16" y="22" width="1" height="4" fill="#DADADA" />
<rect x="30" y="22" width="1" height="1" fill="#DADADA" />
<rect x="1" y="23" width="1" height="1" fill="#202020" />
<rect x="14" y="23" width="1" height="1" fill="#000000" />
<rect x="17" y="23" width="1" height="1" fill="#DADADA" />
<rect x="29" y="23" width="1" height="2" fill="#FFFFFF" />
<rect x="30" y="23" width="1" height="1" fill="#BEBEBE" />
<rect x="31" y="23" width="1" height="1" fill="#9D9D9D" />
<rect x="1" y="24" width="1" height="3" fill="#000000" />
<rect x="14" y="24" width="2" height="1" fill="#202020" />
<rect x="17" y="24" width="1" height="1" fill="#FFFFFF" />
<rect x="30" y="24" width="1" height="1" fill="#DADADA" />
<rect x="31" y="24" width="1" height="1" fill="#B1B1B1" />
<rect x="14" y="25" width="1" height="5" fill="#000000" />
<rect x="15" y="25" width="1" height="3" fill="#202020" />
<rect x="17" y="25" width="1" height="4" fill="#DADADA" />
<rect x="29" y="25" width="1" height="3" fill="#DADADA" />
<rect x="30" y="25" width="1" height="3" fill="#BEBEBE" />
<rect x="31" y="25" width="1" height="1" fill="#9D9D9D" />
<rect x="0" y="26" width="1" height="1" fill="#202020" />
<rect x="16" y="26" width="1" height="1" fill="#BEBEBE" />
<rect x="31" y="26" width="1" height="1" fill="#B1B1B1" />
<rect x="0" y="27" width="1" height="3" fill="#2F2F2F" />
<rect x="1" y="27" width="1" height="1" fill="#202020" />
<rect x="16" y="27" width="1" height="1" fill="#DADADA" />
<rect x="31" y="27" width="1" height="1" fill="#9D9D9D" />
<rect x="1" y="28" width="1" height="1" fill="#000000" />
<rect x="15" y="28" width="1" height="4" fill="#2F2F2F" />
<rect x="16" y="28" width="1" height="1" fill="#BEBEBE" />
<rect x="18" y="28" width="1" height="1" fill="#DADADA" />
<rect x="28" y="28" width="1" height="2" fill="#DADADA" />
<rect x="29" y="28" width="1" height="1" fill="#BEBEBE" />
<rect x="30" y="28" width="1" height="1" fill="#B1B1B1" />
<rect x="31" y="28" width="1" height="2" fill="#818181" />
<rect x="1" y="29" width="1" height="2" fill="#202020" />
<rect x="16" y="29" width="1" height="3" fill="#9D9D9D" />
<rect x="17" y="29" width="2" height="1" fill="#BEBEBE" />
<rect x="19" y="29" width="1" height="1" fill="#DADADA" />
<rect x="20" y="29" width="1" height="1" fill="#BEBEBE" />
<rect x="21" y="29" width="7" height="1" fill="#DADADA" />
<rect x="29" y="29" width="1" height="1" fill="#9D9D9D" />
<rect x="30" y="29" width="1" height="2" fill="#818181" />
<rect x="0" y="30" width="1" height="1" fill="#202020" />
<rect x="2" y="30" width="3" height="1" fill="#202020" />
<rect x="13" y="30" width="2" height="1" fill="#202020" />
<rect x="17" y="30" width="1" height="1" fill="#BEBEBE" />
<rect x="18" y="30" width="5" height="1" fill="#B1B1B1" />
<rect x="23" y="30" width="2" height="1" fill="#BEBEBE" />
<rect x="25" y="30" width="1" height="2" fill="#B1B1B1" />
<rect x="26" y="30" width="2" height="1" fill="#BEBEBE" />
<rect x="28" y="30" width="1" height="1" fill="#B1B1B1" />
<rect x="29" y="30" width="1" height="2" fill="#818181" />
<rect x="31" y="30" width="1" height="2" fill="#525252" />
<rect x="0" y="31" width="3" height="1" fill="#2F2F2F" />
<rect x="3" y="31" width="1" height="1" fill="#202020" />
<rect x="4" y="31" width="1" height="1" fill="#2F2F2F" />
<rect x="5" y="31" width="3" height="1" fill="#202020" />
<rect x="8" y="31" width="1" height="1" fill="#2F2F2F" />
<rect x="9" y="31" width="5" height="1" fill="#202020" />
<rect x="14" y="31" width="1" height="1" fill="#2F2F2F" />
<rect x="17" y="31" width="1" height="1" fill="#9D9D9D" />
<rect x="18" y="31" width="3" height="1" fill="#818181" />
<rect x="21" y="31" width="3" height="1" fill="#525252" />
<rect x="24" y="31" width="1" height="1" fill="#818181" />
<rect x="26" y="31" width="2" height="1" fill="#818181" />
<rect x="28" y="31" width="1" height="1" fill="#525252" />
<rect x="30" y="31" width="1" height="1" fill="#525252" />
</svg>